<?xml version="1.0" encoding="UTF-8" ?>
<!DOCTYPE svg PUBLIC "-//W3C//DTD SVG 1.1//EN" "http://www.w3.org/Graphics/SVG/1.1/DTD/svg11.dtd">
<svg width="258pt" height="258pt" viewBox="0 0 258 258" version="1.1" xmlns="http://www.w3.org/2000/svg">
<g id="#000000ff">
</g>
<g id="#78b7d3ff">
<path fill="#78b7d3" opacity="1.00" d=" M 110.98 26.78 C 117.08 25.85 122.94 23.83 129.00 22.74 C 133.75 23.25 138.23 25.15 142.90 26.09 C 154.99 28.50 166.75 32.27 178.69 35.31 C 199.60 40.75 220.34 46.85 241.36 51.87 C 240.13 61.03 238.28 70.10 236.59 79.18 C 230.92 110.57 225.08 141.92 219.40 173.30 C 208.77 182.03 197.73 190.26 187.37 199.32 C 175.76 207.21 165.62 216.97 154.41 225.39 C 145.72 231.05 138.59 238.70 130.07 244.57 L 128.97 244.47 C 120.12 238.65 112.56 231.07 103.54 225.48 C 92.10 217.34 81.65 207.87 69.86 200.20 C 59.33 191.72 48.40 183.71 37.69 175.46 C 31.56 139.36 25.59 103.24 19.50 67.14 C 18.61 61.33 17.27 55.56 17.06 49.67 C 36.74 44.71 56.48 39.99 76.17 35.10 C 87.81 32.47 99.27 29.09 110.98 26.78 M 115.22 29.32 C 124.61 29.00 134.01 29.59 143.40 29.37 C 138.85 28.57 134.47 26.98 129.88 26.43 C 124.87 26.60 120.11 28.44 115.22 29.32 M 108.53 33.77 C 91.71 35.40 74.06 37.38 59.33 46.35 C 55.85 48.72 51.06 51.93 52.32 56.84 C 53.61 61.26 57.90 63.93 61.63 66.20 C 74.05 73.04 88.27 75.90 102.26 77.25 C 121.42 79.74 140.87 79.62 160.04 77.34 C 173.13 76.06 186.50 73.60 198.06 67.05 C 201.50 64.88 205.45 62.29 206.48 58.11 C 207.25 54.06 203.84 51.13 200.94 48.99 C 189.56 40.79 175.45 38.10 161.92 35.67 C 144.28 32.89 126.33 32.72 108.53 33.77 M 30.31 50.25 C 28.15 50.77 25.91 50.83 23.70 50.90 C 32.69 53.93 41.19 58.21 49.96 61.82 C 48.92 58.89 47.70 55.72 48.66 52.60 C 49.97 49.02 52.97 46.48 55.79 44.09 C 47.23 45.87 38.82 48.25 30.31 50.25 M 203.16 45.95 C 206.11 48.65 209.62 51.42 210.28 55.63 C 210.91 58.46 209.29 61.09 208.34 63.64 C 216.77 59.95 225.34 56.63 233.81 53.05 C 223.38 51.63 213.42 48.17 203.16 45.95 M 21.15 53.72 C 23.17 67.05 25.35 80.38 27.99 93.61 C 28.27 88.02 29.92 82.49 32.81 77.70 C 36.86 71.91 42.55 66.50 49.97 65.94 C 40.40 61.78 30.81 57.67 21.15 53.72 M 209.65 66.99 C 222.11 69.21 229.40 82.07 230.02 93.89 C 232.33 81.32 234.95 68.80 236.90 56.16 C 227.74 59.56 218.75 63.42 209.65 66.99 M 49.15 69.95 C 40.31 71.52 34.44 79.95 32.47 88.23 C 27.53 107.63 33.02 127.78 39.93 145.99 C 43.06 155.22 47.85 163.76 52.89 172.06 C 57.40 178.80 62.57 185.05 67.57 191.43 C 71.13 195.54 75.05 199.42 79.66 202.36 C 86.42 206.99 93.55 211.83 101.89 212.86 C 107.86 213.86 114.68 212.40 118.66 207.56 C 127.25 198.83 128.04 185.60 127.26 174.05 C 126.47 157.94 121.03 142.59 115.11 127.75 C 109.73 116.95 103.81 106.26 95.68 97.25 C 88.87 88.10 80.48 79.78 70.09 74.82 C 63.80 71.27 56.45 68.69 49.15 69.95 M 201.24 71.23 C 187.95 74.21 176.88 83.07 167.94 92.99 C 165.45 96.18 163.02 99.41 160.33 102.43 C 153.99 110.33 149.22 119.32 144.43 128.21 C 141.99 132.81 140.81 137.92 138.91 142.75 C 132.99 158.83 129.63 176.44 132.89 193.47 C 134.59 202.02 140.54 211.28 149.93 212.22 C 159.56 213.34 168.31 208.21 175.88 202.90 C 187.41 195.85 194.64 184.14 202.74 173.70 C 209.03 163.86 214.95 153.61 218.58 142.46 C 224.61 126.68 228.74 109.57 226.26 92.62 C 225.07 86.00 222.85 78.91 217.30 74.64 C 213.00 70.75 206.73 70.00 201.24 71.23 M 94.82 80.30 C 106.56 84.84 117.99 90.11 129.64 94.86 C 141.11 90.25 152.45 85.34 164.04 81.03 C 156.68 81.76 149.33 82.63 141.93 82.86 C 126.19 83.86 110.40 82.53 94.82 80.30 M 85.80 80.67 C 96.93 91.61 106.94 103.91 114.33 117.71 C 119.53 128.54 124.39 139.58 127.56 151.20 C 127.60 133.64 127.56 116.07 127.58 98.51 C 113.69 92.48 99.66 86.77 85.80 80.67 M 131.62 98.51 C 131.66 116.42 131.55 134.32 131.68 152.22 C 137.55 132.78 145.75 113.58 159.04 97.99 C 164.01 92.07 168.63 85.75 174.75 80.93 C 160.38 86.78 145.97 92.57 131.62 98.51 M 37.48 149.85 C 38.20 156.57 39.63 163.19 40.54 169.89 C 40.86 171.77 40.90 174.14 42.87 175.13 C 48.40 178.61 53.46 182.76 58.81 186.50 C 52.30 178.38 46.25 169.78 42.00 160.24 C 40.58 156.74 39.06 153.28 37.48 149.85 M 200.07 183.63 C 205.31 179.32 211.07 175.71 216.26 171.33 C 216.89 164.15 218.62 157.12 219.55 149.98 C 214.70 162.06 208.33 173.54 200.07 183.63 M 114.26 215.38 C 108.94 217.68 102.96 216.93 97.38 216.30 C 102.80 219.96 107.74 224.28 113.30 227.74 C 118.03 231.52 122.76 235.30 127.61 238.94 C 127.71 226.42 127.58 213.90 127.62 201.38 C 124.73 207.25 120.34 212.65 114.26 215.38 M 131.57 201.92 C 131.59 214.22 131.48 226.53 131.54 238.83 C 141.22 230.63 151.31 222.98 161.30 215.15 C 156.87 215.94 152.31 216.78 147.84 215.75 C 140.33 214.57 134.83 208.41 131.57 201.92 Z" />
<path fill="#78b7d3" opacity="1.00" d=" M 108.46 36.73 C 118.58 35.33 128.82 35.30 138.99 35.87 C 150.25 36.82 161.68 38.39 172.14 42.87 C 176.53 44.71 180.83 47.41 183.31 51.59 C 184.70 54.81 183.41 58.59 180.79 60.79 C 175.36 65.66 168.05 67.54 161.20 69.50 C 144.41 73.06 126.98 73.35 109.99 71.08 C 100.74 69.66 91.41 67.69 83.05 63.34 C 79.53 61.32 75.47 58.47 75.14 54.05 C 74.56 50.00 77.89 46.87 80.97 44.87 C 89.19 39.66 98.98 37.98 108.46 36.73 M 85.01 46.97 C 82.25 48.25 80.14 50.50 78.28 52.86 C 79.36 54.90 80.51 57.05 82.55 58.30 C 87.44 61.60 93.12 63.54 98.79 65.01 C 110.61 67.78 122.81 68.78 134.93 68.53 C 146.97 67.98 159.27 66.97 170.53 62.35 C 173.62 61.08 176.85 59.65 179.02 57.00 C 180.27 55.44 180.35 52.69 178.65 51.41 C 174.41 47.50 168.85 45.44 163.44 43.72 C 148.68 39.69 133.23 38.85 118.00 39.60 C 106.75 40.37 95.21 41.83 85.01 46.97 Z" />
<path fill="#78b7d3" opacity="1.00" d=" M 118.53 42.83 C 129.18 41.72 140.22 41.95 150.42 45.52 C 153.73 46.70 157.14 48.60 158.62 51.96 C 158.98 56.39 154.21 58.70 150.69 59.96 C 138.60 63.72 125.46 63.75 113.14 61.04 C 108.60 59.77 103.27 58.25 100.82 53.85 C 99.55 51.40 101.57 48.91 103.49 47.54 C 107.92 44.56 113.35 43.67 118.53 42.83 M 103.79 52.05 C 105.65 53.68 107.69 55.17 110.07 55.93 C 118.70 58.94 128.01 59.34 137.06 58.67 C 143.44 58.05 150.19 57.04 155.32 52.85 C 153.37 51.31 151.29 49.87 148.89 49.13 C 139.92 46.14 130.30 45.82 120.94 46.52 C 114.92 47.10 108.76 48.42 103.79 52.05 Z" />
<path fill="#78b7d3" opacity="1.00" d=" M 53.38 93.52 C 61.03 91.00 68.78 94.72 75.05 98.89 C 82.78 103.68 89.10 110.57 93.69 118.39 C 103.83 132.96 110.52 150.25 111.33 168.07 C 111.55 176.51 109.71 186.26 102.47 191.57 C 97.13 195.68 89.69 194.89 83.85 192.30 C 76.66 188.98 70.21 183.99 65.34 177.73 C 58.96 171.07 54.31 163.01 50.13 154.85 C 42.81 140.91 39.13 124.71 41.47 109.01 C 42.16 102.23 46.93 95.81 53.38 93.52 M 53.49 97.69 C 45.45 101.28 44.08 111.22 44.28 119.02 C 45.02 139.62 54.97 158.68 67.39 174.66 C 73.90 181.61 81.57 188.52 91.26 190.28 C 96.62 191.39 102.07 188.14 104.36 183.32 C 108.72 174.51 107.41 164.28 105.55 154.99 C 102.98 144.65 99.12 134.53 93.39 125.52 C 87.27 114.58 78.75 104.23 67.11 98.96 C 62.99 96.78 57.89 95.79 53.49 97.69 Z" />
<path fill="#78b7d3" opacity="1.00" d=" M 195.25 94.29 C 200.29 92.65 206.17 93.33 210.35 96.73 C 213.64 99.54 216.08 103.50 216.59 107.84 C 219.19 123.61 215.59 140.00 208.06 153.96 C 202.76 164.76 195.73 174.74 187.05 183.09 C 181.44 188.27 174.66 192.85 166.88 193.63 C 161.20 194.23 155.26 191.47 152.35 186.49 C 147.82 179.13 147.78 170.05 148.72 161.73 C 150.23 150.69 154.25 140.12 159.25 130.21 C 165.44 119.76 171.70 108.79 181.82 101.61 C 186.11 98.87 190.34 95.81 195.25 94.29 M 193.76 99.05 C 183.27 103.29 175.55 112.02 169.18 121.07 C 162.38 131.43 157.14 142.85 154.07 154.87 C 152.44 161.91 151.70 169.27 152.83 176.44 C 153.72 181.15 155.68 186.47 160.36 188.59 C 164.10 190.48 168.53 189.64 172.26 188.15 C 179.20 185.38 184.63 180.02 189.92 174.94 C 198.64 163.72 206.38 151.44 210.57 137.77 C 213.31 128.84 215.17 119.29 213.40 109.99 C 212.73 106.18 211.25 102.25 208.00 99.92 C 204.07 96.46 198.23 97.07 193.76 99.05 Z" />
<path fill="#78b7d3" opacity="1.00" d=" M 61.27 118.39 C 64.30 116.95 67.89 117.62 70.76 119.13 C 80.73 124.50 87.44 134.46 90.89 145.04 C 92.73 152.44 94.23 160.70 90.83 167.89 C 87.78 172.89 80.70 172.93 76.13 170.07 C 69.27 166.61 65.23 159.86 61.45 153.50 C 57.47 147.01 55.29 139.48 54.80 131.91 C 54.67 126.83 56.40 120.83 61.27 118.39 M 62.40 122.43 C 59.47 124.61 58.66 128.57 58.78 132.03 C 59.21 139.55 61.75 146.87 65.66 153.28 C 68.85 159.32 73.60 164.97 80.12 167.49 C 82.93 168.64 86.56 167.88 87.92 164.96 C 90.59 159.21 89.07 152.60 87.30 146.80 C 84.14 137.47 78.83 128.09 69.90 123.24 C 67.67 122.08 64.71 120.72 62.40 122.43 Z" />
<path fill="#78b7d3" opacity="1.00" d=" M 191.29 118.45 C 195.08 116.93 199.79 118.70 201.81 122.22 C 204.20 125.99 204.05 130.65 203.72 134.94 C 202.81 144.18 198.21 152.51 192.88 159.92 C 189.49 165.29 184.35 169.95 178.05 171.42 C 173.36 172.54 168.30 169.40 167.18 164.73 C 165.83 158.59 166.40 152.08 168.37 146.14 C 172.23 134.58 179.66 123.26 191.29 118.45 M 191.49 122.67 C 182.82 126.60 177.33 135.02 173.71 143.50 C 171.24 149.62 169.17 156.47 170.93 163.07 C 171.44 165.71 173.90 168.13 176.74 167.52 C 182.07 166.59 186.09 162.49 189.41 158.51 C 194.27 151.45 198.69 143.71 199.73 135.05 C 200.16 131.33 200.45 127.11 198.14 123.91 C 196.69 121.79 193.65 121.72 191.49 122.67 Z" />
</g>
</svg>
